<?xml version="1.0" encoding="UTF-8"?>
<svg id="Capa_2" data-name="Capa 2" xmlns="http://www.w3.org/2000/svg" viewBox="0 0 199.69 60.11">
  <defs>
    <style>
      .cls-1 {
        fill: #ed1b25;
      }

      .cls-1, .cls-2, .cls-3, .cls-4, .cls-5, .cls-6, .cls-7, .cls-8, .cls-9, .cls-10, .cls-11, .cls-12, .cls-13 {
        stroke-width: 0px;
      }

      .cls-1, .cls-2, .cls-3, .cls-4, .cls-5, .cls-6, .cls-7, .cls-8, .cls-10, .cls-11, .cls-12, .cls-13 {
        fill-rule: evenodd;
      }

      .cls-2 {
        fill: #faba1c;
      }

      .cls-3 {
        fill: #434443;
      }

      .cls-4 {
        fill: #ef5a70;
      }

      .cls-5 {
        fill: #babcbe;
      }

      .cls-6 {
        fill: #d5d5d7;
      }

      .cls-7 {
        fill: #00aded;
      }

      .cls-8 {
        fill: #5f5f5f;
      }

      .cls-9 {
        fill: #fff;
      }

      .cls-10 {
        fill: #009e4f;
      }

      .cls-11 {
        fill: #22201e;
      }

      .cls-12 {
        fill: #fefefe;
      }

      .cls-13 {
        fill: #c6569e;
      }
    </style>
  </defs>
  <g id="Capa_1-2" data-name="Capa 1">
    <g>
      <g>
        <path class="cls-9" d="M77.77,22.61l-2.27,2.36v4.27h-3.88V12.36h3.88v7.89l7.48-7.89h4.34l-7,7.53,7.41,9.36h-4.56l-5.4-6.63Z"/>
        <path class="cls-9" d="M99.84,25.63h-7.84l-1.5,3.62h-4l7.53-16.89h3.86l7.55,16.89h-4.1l-1.5-3.62ZM98.61,22.66l-2.68-6.47-2.68,6.47h5.36Z"/>
        <path class="cls-9" d="M109.85,15.54h-5.4v-3.18h14.72v3.18h-5.4v13.7h-3.91v-13.7Z"/>
        <path class="cls-9" d="M136.75,12.36v16.89h-3.91v-6.92h-7.67v6.92h-3.91V12.36h3.91v6.66h7.67v-6.66h3.91Z"/>
        <path class="cls-9" d="M153.83,26.11v3.14h-13.08V12.36h12.76v3.14h-8.88v3.67h7.84v3.04h-7.84v3.91h9.19Z"/>
        <path class="cls-9" d="M156.94,12.36h3.91v13.7h8.47v3.18h-12.38V12.36Z"/>
        <path class="cls-9" d="M79.67,40.54c0,2.26-1.63,3.61-4.33,3.61h-3.07v3.52h-.78v-10.75h3.85c2.7,0,4.33,1.35,4.33,3.62ZM78.88,40.54c0-1.86-1.23-2.92-3.53-2.92h-3.07v5.82h3.07c2.3,0,3.53-1.06,3.53-2.9Z"/>
        <path class="cls-9" d="M89.78,47.67l-2.56-3.59c-.34.05-.68.08-1.05.08h-3.07v3.52h-.78v-10.75h3.85c2.7,0,4.33,1.35,4.33,3.62,0,1.7-.92,2.89-2.52,3.36l2.69,3.76h-.89ZM86.17,43.46c2.3,0,3.53-1.08,3.53-2.92s-1.23-2.92-3.53-2.92h-3.07v5.84h3.07Z"/>
        <path class="cls-9" d="M92.34,42.29c0-3.12,2.38-5.45,5.59-5.45s5.59,2.32,5.59,5.45-2.4,5.45-5.59,5.45-5.59-2.33-5.59-5.45ZM102.72,42.29c0-2.72-2.06-4.73-4.79-4.73s-4.81,2.01-4.81,4.73,2.06,4.73,4.81,4.73,4.79-2.01,4.79-4.73Z"/>
        <path class="cls-9" d="M106.23,36.92h4.25c3.41,0,5.71,2.24,5.71,5.38s-2.3,5.38-5.71,5.38h-4.25v-10.75ZM110.42,46.96c3.04,0,4.99-1.94,4.99-4.67s-1.95-4.67-4.99-4.67h-3.41v9.34h3.41Z"/>
        <path class="cls-9" d="M118.82,43.11v-6.19h.78v6.16c0,2.69,1.29,3.95,3.53,3.95s3.52-1.26,3.52-3.95v-6.16h.78v6.19c0,3.07-1.64,4.64-4.32,4.64s-4.3-1.57-4.3-4.64Z"/>
        <path class="cls-9" d="M130.05,42.29c0-3.13,2.38-5.45,5.58-5.45,1.52,0,2.89.49,3.82,1.49l-.49.51c-.92-.91-2.04-1.27-3.3-1.27-2.75,0-4.82,2.03-4.82,4.73s2.07,4.73,4.82,4.73c1.26,0,2.38-.38,3.3-1.29l.49.51c-.94,1-2.3,1.51-3.82,1.51-3.2,0-5.58-2.32-5.58-5.45Z"/>
        <path class="cls-9" d="M140.81,42.29c0-3.13,2.38-5.45,5.58-5.45,1.52,0,2.89.49,3.82,1.49l-.49.51c-.92-.91-2.04-1.27-3.3-1.27-2.75,0-4.82,2.03-4.82,4.73s2.07,4.73,4.82,4.73c1.26,0,2.38-.38,3.3-1.29l.49.51c-.94,1-2.3,1.51-3.82,1.51-3.2,0-5.58-2.32-5.58-5.45Z"/>
        <path class="cls-9" d="M152.83,36.92h.78v10.75h-.78v-10.75Z"/>
        <path class="cls-9" d="M156.33,42.29c0-3.12,2.38-5.45,5.59-5.45s5.59,2.32,5.59,5.45-2.4,5.45-5.59,5.45-5.59-2.33-5.59-5.45ZM166.72,42.29c0-2.72-2.06-4.73-4.79-4.73s-4.81,2.01-4.81,4.73,2.06,4.73,4.81,4.73,4.79-2.01,4.79-4.73Z"/>
        <path class="cls-9" d="M178.98,36.92v10.75h-.65l-7.33-9.34v9.34h-.78v-10.75h.66l7.31,9.34v-9.34h.78Z"/>
        <path class="cls-9" d="M190.14,46.96v.71h-7.42v-10.75h7.19v.71h-6.41v4.24h5.73v.69h-5.73v4.41h6.64Z"/>
        <path class="cls-9" d="M191.9,46.29l.35-.58c.74.77,2.11,1.35,3.55,1.35,2.15,0,3.1-.94,3.1-2.1,0-3.23-6.71-1.29-6.71-5.25,0-1.52,1.17-2.86,3.81-2.86,1.18,0,2.41.37,3.24.97l-.29.63c-.89-.61-1.98-.91-2.95-.91-2.09,0-3.03.97-3.03,2.15,0,3.23,6.71,1.32,6.71,5.22,0,1.52-1.21,2.84-3.87,2.84-1.6,0-3.13-.6-3.92-1.46Z"/>
      </g>
      <g>
        <path class="cls-4" d="M23.87.59l-1.99,19.12,27.28-12.51C42.26,1.29,32.93-1.25,23.87.59h0Z"/>
        <path class="cls-1" d="M19.95,1.56c-.81.3-1.63.61-2.44.98C9.59,6.17,4,12.88,1.49,20.63l15.62,11.3L19.95,1.56Z"/>
        <path class="cls-2" d="M7.7,50.17l17.41-7.97L.52,24.42C.18,26.26,0,28.13,0,30.02v.04c0,4.15.85,8.37,2.66,12.39,1.31,2.9,3.03,5.48,5.03,7.73h0Z"/>
        <path class="cls-10" d="M39.52,58.5c.91-.32,1.82-.68,2.71-1.08,8.11-3.71,13.77-10.66,16.2-18.64l-15.71-10.89-3.2,30.62Z"/>
        <path class="cls-7" d="M35.77,59.52l2.01-19.12-27.28,12.51c6.88,5.91,16.22,8.45,25.28,6.61h0Z"/>
        <path class="cls-13" d="M59.32,34.99l-24.56-17.03,17.43-8c1.95,2.21,3.59,4.74,4.86,7.56,2.57,5.67,3.22,11.74,2.26,17.47h0Z"/>
        <path class="cls-12" d="M18.83,13.33C2.44,24.42,10.31,50.14,29.87,50.14s27.44-25.7,11.04-36.82c-6.63-4.49-15.46-4.49-22.09,0h0Z"/>
        <path class="cls-6" d="M21.52,17.41c-12.38,8.39-6.44,27.83,8.35,27.83s20.74-19.43,8.35-27.83c-5.01-3.39-11.69-3.39-16.7,0h0Z"/>
        <path class="cls-8" d="M23.21,19.97c-9.88,6.69-5.14,22.2,6.66,22.2s16.55-15.5,6.66-22.2c-4-2.71-9.33-2.71-13.32,0h0Z"/>
        <path class="cls-3" d="M23.99,21.15c-8.72,5.91-4.53,19.59,5.88,19.59s14.6-13.68,5.88-19.59c-3.52-2.39-8.23-2.39-11.75,0h0Z"/>
        <path class="cls-11" d="M26.61,25.12c-4.84,3.27-2.51,10.87,3.26,10.87s8.1-7.59,3.26-10.87c-1.96-1.33-4.56-1.33-6.52,0h0Z"/>
        <path class="cls-5" d="M26.16,28.06c-2.29-1.55-1.19-5.14,1.54-5.14s3.83,3.59,1.54,5.14c-.92.63-2.16.63-3.08,0h0Z"/>
        <path class="cls-12" d="M32.5,35.91c-1.13-.76-.58-2.53.76-2.53s1.88,1.77.76,2.53c-.45.31-1.06.31-1.51,0h0Z"/>
      </g>
    </g>
  </g>
</svg>